<svg width="238" height="372" viewBox="0 0 238 372" fill="none" xmlns="http://www.w3.org/2000/svg">
<path d="M234.197 233.661C234.426 197.073 236.025 160.25 235.338 123.656C234.885 93.6928 235.114 63.9636 234.885 34C234.885 30.1146 234.656 26.224 234.426 22.5678C233.739 15.4792 230.536 10.448 223.676 7.70317C222.989 7.474 222.072 7.01567 221.385 6.7865C214.296 4.27088 206.973 4.27088 199.656 4.50005C189.135 4.95838 178.38 5.18754 167.859 5.4115C163.057 5.4115 158.249 5.18755 153.218 4.95838C130.801 4.72921 108.385 4.50005 85.9681 4.27088C81.8483 4.27088 77.5046 3.81255 73.3848 3.81255C69.0358 3.81255 64.4629 3.58338 60.1191 3.81255C50.0514 4.27088 40.2181 4.95838 30.1504 5.64067C26.2598 5.86984 22.1452 6.32817 18.2546 6.55734C12.5358 7.01567 8.87435 12.9636 8.65039 17.0782C8.19206 24.625 7.50456 32.1719 7.50456 39.948C7.50456 57.3282 7.50456 74.4844 7.96289 91.8646C8.19206 98.2709 8.19206 104.901 8.19206 111.307V156.589C7.96289 165.969 7.96289 175.344 7.50456 184.719C7.27539 191.583 7.04622 198.214 6.81706 205.073C6.58789 216.052 6.58789 227.031 6.35872 237.781C5.90039 253.104 4.75977 268.427 4.5306 283.75C4.07227 302.734 4.30143 321.714 4.30143 340.698C4.30143 345.271 4.98893 349.849 6.35872 354.193C7.50456 358.078 10.0202 360.823 13.2233 362.656C17.1139 364.943 21.4577 366.313 26.0306 366.313C29.9212 366.313 33.5827 366.542 37.4681 366.771C43.416 367 49.3639 367.688 55.0827 367.458C64.6921 367 74.5306 367 84.1348 367.458C100.604 368.146 117.077 368.828 133.775 369.516C139.723 369.745 145.671 369.974 151.39 369.974C170.145 369.974 189.135 369.974 207.89 370.203C211.093 370.203 214.067 369.516 217.041 368.146C225.505 363.797 230.307 356.708 232.364 347.786C234.426 338.87 235.338 329.948 235.338 320.802C235.567 305.021 235.567 289.24 235.338 273.229C234.885 259.964 234.197 246.927 234.197 233.661Z" fill="#333333"/>
<path d="M234.197 233.661C234.426 197.073 236.025 160.25 235.338 123.656C234.885 93.6928 235.114 63.9636 234.885 34C234.885 30.1146 234.656 26.224 234.426 22.5678C233.739 15.4792 230.536 10.448 223.676 7.70317C222.989 7.474 222.072 7.01567 221.385 6.7865C214.296 4.27088 206.973 4.27088 199.656 4.50005C189.135 4.95838 178.38 5.18754 167.859 5.4115C163.057 5.4115 158.249 5.18755 153.218 4.95838C130.801 4.72921 108.385 4.50005 85.9681 4.27088C81.8483 4.27088 77.5046 3.81255 73.3848 3.81255C69.0358 3.81255 64.4629 3.58338 60.1191 3.81255C50.0514 4.27088 40.2181 4.95838 30.1504 5.64067C26.2598 5.86984 22.1452 6.32817 18.2546 6.55734C12.5358 7.01567 8.87435 12.9636 8.65039 17.0782C8.19206 24.625 7.50456 32.1719 7.50456 39.948C7.50456 57.3282 7.50456 74.4844 7.96289 91.8646C8.19206 98.2709 8.19206 104.901 8.19206 111.307V156.589C7.96289 165.969 7.96289 175.344 7.50456 184.719C7.27539 191.583 7.04622 198.214 6.81706 205.073C6.58789 216.052 6.58789 227.031 6.35872 237.781C5.90039 253.104 4.75977 268.427 4.5306 283.75C4.07227 302.734 4.30143 321.714 4.30143 340.698C4.30143 345.271 4.98893 349.849 6.35872 354.193C7.50456 358.078 10.0202 360.823 13.2233 362.656C17.1139 364.943 21.4577 366.313 26.0306 366.313C29.9212 366.313 33.5827 366.542 37.4681 366.771C43.416 367 49.3639 367.688 55.0827 367.458C64.6921 367 74.5306 367 84.1348 367.458C100.604 368.146 117.077 368.828 133.775 369.516C139.723 369.745 145.671 369.974 151.39 369.974C170.145 369.974 189.135 369.974 207.89 370.203C211.093 370.203 214.067 369.516 217.041 368.146C225.505 363.797 230.307 356.708 232.364 347.786C234.426 338.87 235.338 329.948 235.338 320.802C235.567 305.021 235.567 289.24 235.338 273.229C234.885 259.964 234.197 246.927 234.197 233.661Z" fill="#333333"/>
<path d="M206.062 371.802C191.88 371.802 179.297 371.573 166.26 371.573C166.031 371.573 166.031 371.573 165.802 371.573C163.968 371.573 162.369 371.573 160.765 371.573C159.166 371.573 157.338 371.573 155.734 371.573C155.047 371.573 154.364 371.573 153.677 371.573C144.755 371.344 135.604 371.115 126.682 370.662H126.453C122.567 370.432 118.677 370.432 114.791 370.203C110.213 369.974 105.64 369.745 101.062 369.745C97.8591 369.745 94.6611 369.516 91.458 369.287C85.0518 369.057 78.1872 368.828 71.557 368.828C69.7236 368.828 67.8955 368.828 66.2913 368.828C62.6351 368.828 59.432 369.057 56.2288 369.057C48.2236 369.057 41.1299 368.828 34.4997 368.146C33.3538 368.146 32.208 367.917 30.8382 367.917C29.9215 367.917 29.234 367.917 28.5518 367.917H28.0934C27.8643 367.917 27.8643 367.917 27.6351 367.917C21.9163 367.917 16.4268 366.083 11.1663 362.427C7.50488 359.912 4.98925 356.479 3.61425 352.136C2.01529 347.557 1.32779 342.755 1.09863 337.495C0.640295 315.771 1.09863 292.214 2.70279 263.396C4.07259 240.297 4.30175 217.88 4.30175 199.13C4.30175 196.156 4.30175 193.182 4.30175 190.208V185.865C5.21842 145.156 5.21842 113.594 4.53092 83.8595C4.07259 67.849 4.53092 51.3855 4.76009 35.6042V32.4011C4.98925 26.224 5.67675 20.2813 6.58821 14.5626C7.04655 12.047 7.73405 9.98967 9.10384 8.3855C10.2497 6.78654 12.0778 5.64071 14.1403 4.95841C18.7132 3.58341 22.6038 2.89591 26.4893 2.89591C26.7184 2.89591 26.9476 2.89591 27.1768 2.89591C28.3226 2.89591 29.4632 2.89591 30.609 2.89591C38.8434 2.89591 47.0778 2.21362 55.083 1.52612C56.9163 1.29696 58.5153 1.29696 60.3486 1.06779C62.1768 0.838623 64.0049 0.838623 66.5205 0.838623C68.1247 0.838623 69.9528 0.838623 71.557 0.838623C72.4684 0.838623 73.6143 0.838623 74.5309 0.838623C76.1299 0.838623 77.958 1.06779 79.5622 1.06779C80.932 1.06779 82.5361 1.29696 83.9059 1.29696C95.1143 1.52612 106.781 1.98446 118.448 2.21362C119.593 2.21362 120.963 2.21362 122.338 2.21362C123.708 2.21362 124.854 2.21362 126.229 2.21362C127.599 2.21362 128.744 2.21362 130.114 2.21362C131.26 2.21362 132.172 2.21362 133.088 2.21362C138.119 2.21362 143.156 2.44279 147.958 2.44279C156.192 2.67196 164.656 2.67196 173.119 2.89591C173.578 2.89591 173.807 2.89591 174.265 2.89591C179.067 2.89591 183.869 2.67196 188.448 2.44279C189.588 2.44279 190.734 2.44279 191.88 2.21362C192.562 2.21362 193.021 2.21362 193.708 2.21362H193.937C196.911 1.98446 199.885 1.98446 202.859 1.98446C206.521 1.98446 209.489 2.21362 212.239 2.67196C216.354 3.35425 220.244 4.50008 224.13 6.55737C230.536 9.7605 234.198 15.4792 235.114 23.2553C235.797 31.0313 236.026 39.2605 236.255 46.8126C236.484 58.7032 236.484 70.5938 236.713 82.0313C236.942 98.9532 237.172 116.339 237.401 133.49C237.63 149.5 237.401 165.74 236.942 181.521C236.713 187.005 236.713 192.495 236.484 198.214C236.026 219.255 236.026 236.177 236.026 251.729C236.026 260.422 236.255 269.344 236.255 278.031C236.484 288.323 236.713 299.073 236.484 309.594C236.484 322.63 235.338 333.839 233.052 343.901C232.593 346.417 231.682 348.932 230.765 351.677C229.166 355.792 226.875 359.224 223.901 362.198C221.156 364.943 217.5 367.458 213.38 369.287C211.781 371.115 209.036 371.802 206.062 371.802ZM70.8695 365.63C75.4424 365.63 80.0205 365.63 84.3643 365.854C97.4059 366.542 110.442 367 123.026 367.458H123.479C126.453 367.458 129.427 367.688 132.401 367.688C133.547 367.688 134.463 367.688 135.604 367.917C140.182 368.146 144.755 368.37 149.557 368.37C159.625 368.37 169.687 368.37 179.526 368.37H179.755C187.76 368.37 195.994 368.37 204.229 368.37C207.89 368.37 211.093 367.688 214.297 366.083C222.76 361.74 228.25 354.651 230.536 344.359C232.364 336.125 233.281 327.203 233.51 317.37C233.739 301.818 233.739 286.495 233.51 270.714C233.51 265.224 233.281 259.505 233.052 254.021C232.823 246.927 232.593 239.609 232.593 232.292C232.593 218.109 232.823 203.703 233.281 189.75C233.739 168.484 234.198 146.297 233.739 124.573C233.51 105.13 233.51 85.4636 233.281 66.2501C233.281 56.6459 233.281 46.5834 233.281 36.7449C233.281 32.6303 233.052 28.7449 232.823 25.3126C232.14 17.0782 228.021 11.3595 220.474 8.61466C220.244 8.61466 220.015 8.3855 219.557 8.3855C219.099 8.15633 218.64 7.93237 217.958 7.93237C211.781 5.64071 205.833 5.41675 201.255 5.41675C199.427 5.41675 197.369 5.41675 195.765 5.41675C184.328 5.86987 174.265 6.09904 164.885 6.32821C164.427 6.32821 164.198 6.32821 163.739 6.32821C161.453 6.32821 159.166 6.32821 156.88 6.09904C155.047 6.09904 152.989 5.86987 150.932 5.86987C140.864 5.64071 130.573 5.64071 120.734 5.64071H120.51C109.067 5.41675 97.4059 5.41675 85.7393 5.18758C83.6768 5.18758 81.6195 4.95841 79.5622 4.95841C77.5049 4.95841 75.6715 4.72925 73.6143 4.72925H73.1559C71.0986 4.72925 69.0361 4.72925 66.9788 4.72925C64.6924 4.72925 62.4059 4.72925 60.5726 4.95841C52.5674 5.41675 44.333 5.86987 36.3278 6.55737C34.7236 6.55737 33.1247 6.78654 31.5257 6.78654C27.8643 7.01571 23.9736 7.24487 19.859 7.70321C12.7653 8.3855 8.19238 15.7084 7.96321 20.5105C7.73405 22.797 7.73405 25.0834 7.50488 27.3699C7.04655 32.4011 6.81738 37.8907 6.81738 43.1511C6.81738 59.3907 6.81738 76.5418 7.27571 93.922C7.96321 129.375 7.73405 158.193 7.04655 184.719C7.04655 186.781 6.81738 188.839 6.81738 190.667V190.896C6.58821 195.469 6.58821 200.042 6.35905 204.62C6.35905 208.734 6.12988 213.078 6.12988 217.198C6.12988 223.599 5.90071 230.234 5.67675 236.636C5.44759 242.813 5.21842 249.214 4.76009 255.391C4.30175 264.083 3.84342 273 3.84342 281.693C3.61425 296.099 3.61425 310.969 3.61425 325.146C3.61425 328.807 3.61425 333.151 3.61425 337.266C3.61425 342.073 4.30175 346.646 5.67675 351.219C7.04654 355.563 9.56217 358.766 13.682 361.052C18.0257 363.568 22.6038 364.943 27.4059 364.943H27.8643C30.1507 364.943 32.4372 365.172 34.7236 365.172C35.8695 365.172 37.2445 365.401 38.3851 365.401C40.2184 365.401 41.8174 365.63 43.6455 365.63C46.6195 365.854 49.8226 366.083 53.0257 366.083C53.9424 366.083 54.8538 366.083 55.7705 366.083C61.2601 365.63 66.2913 365.63 70.8695 365.63Z" fill="#C69C6D"/>
<path d="M168.776 350.761C160.541 350.761 151.849 350.531 142.01 350.078C131.26 349.62 120.052 349.391 107.01 349.162C102.666 349.162 98.0882 349.162 93.057 349.162C83.9059 349.162 74.5309 349.162 65.6091 349.162H62.1768C58.7445 349.162 55.3122 349.391 51.8799 349.62C51.1976 349.62 50.5101 349.62 50.0518 349.62C49.8226 349.62 49.8226 349.62 49.5934 349.62C47.7653 349.62 46.6195 348.932 45.2497 347.557C40.6715 342.073 34.9528 338.641 28.0934 336.813C26.4893 336.354 25.5778 336.125 25.1195 335.667C24.6611 335.208 24.6611 334.297 24.6611 332.464C24.8903 308.453 25.3486 283.979 25.807 257.448C26.0309 248.531 26.0309 239.609 26.2601 230.917C26.2601 228.63 26.2601 226.115 26.4893 223.828C26.7184 216.281 26.7184 208.734 26.9476 201.188C26.9476 200.958 26.9476 200.729 26.9476 200.5C26.9476 200.042 26.9476 199.589 26.9476 199.359C27.4059 198.672 28.0934 198.214 28.3226 198.214C28.5518 198.214 29.4632 198.672 29.6924 199.359C29.9215 199.818 29.9215 200.729 29.9215 201.417V202.104C29.9215 212.396 29.6924 223.146 29.6924 233.438C29.4632 249.214 29.2341 265.453 29.0049 281.005V287.412C29.0049 295.646 28.7809 304.104 28.7809 312.109C28.7809 317.599 28.5518 323.089 28.5518 328.807C28.5518 329.719 28.5518 330.406 28.5518 331.323C28.5518 331.781 28.5518 332.005 28.5518 332.464V332.922L29.0049 333.151C29.4632 333.38 30.1507 333.609 30.609 333.609C31.5257 334.068 32.6663 334.297 33.583 334.75C39.3018 336.813 43.6455 340.011 46.8486 344.13C48.2236 345.729 49.5934 346.417 51.4268 346.417H51.6559H55.083C65.6091 346.188 76.3591 345.729 87.1091 345.729C88.4841 345.729 90.083 345.729 91.6872 345.729C98.7757 345.729 105.869 345.958 112.729 345.958C114.104 345.958 115.474 345.958 116.849 345.958C123.479 346.188 130.114 346.188 136.75 346.417C138.578 346.417 140.182 346.417 142.01 346.646C144.526 346.646 147.041 346.875 149.557 346.875C154.593 347.104 159.854 347.333 164.885 347.333C165.343 347.333 165.573 347.333 166.031 347.333C170.604 347.333 175.406 347.104 179.984 347.104C182.041 347.104 184.328 346.875 186.39 346.875C188.218 346.875 189.588 346.188 190.734 344.818C195.994 338.412 202.63 334.75 210.864 333.609C211.093 333.609 211.323 333.38 211.552 333.38C211.781 333.38 211.781 333.151 212.239 333.151L212.692 332.922V332.234C212.692 331.323 212.692 330.406 212.692 329.266C212.692 327.203 212.692 325.146 212.692 323.089C212.692 316.912 212.692 310.511 212.692 304.333C212.692 289.469 212.692 273.917 212.463 258.823C212.463 249.901 212.239 240.526 212.01 231.833C211.781 226.115 211.781 220.401 211.552 214.453C211.552 211.479 211.552 208.505 211.552 205.76C211.552 204.391 211.552 203.016 211.552 201.646V201.417C211.552 201.188 211.552 200.958 211.552 200.729C211.552 199.13 212.01 198.901 212.922 198.901C212.922 198.901 212.922 198.901 213.151 198.901C213.38 198.901 214.297 198.901 214.526 200.958C214.755 202.557 214.755 204.162 214.755 205.76C214.755 209.651 214.755 213.537 214.755 217.198C214.755 224.516 214.755 231.833 214.984 239.38C214.984 244.641 215.208 250.13 215.437 255.391C215.437 258.135 215.666 260.88 215.666 263.396C215.666 264.995 215.666 266.828 215.666 268.886C215.666 286.037 215.666 303.646 215.666 320.344V331.781C215.666 332.005 215.666 332.464 215.666 332.693C215.666 334.297 215.437 335.438 215.208 335.896C214.755 336.354 214.067 336.583 212.239 336.813C205.604 337.495 199.427 340.469 193.937 345.958C193.937 345.958 193.708 346.188 193.708 346.417C191.651 350.302 188.218 350.302 184.099 350.531C178.838 350.531 173.807 350.761 168.776 350.761Z" fill="#C69C6D"/>
<path d="M213.609 178.547C213.151 178.547 212.693 177.859 212.463 177.401C212.24 176.484 212.24 175.573 212.24 174.656V174.427C212.24 172.141 212.463 169.854 212.463 167.568C212.693 163.453 212.922 159.104 212.922 154.76C212.922 142.641 213.151 129.828 212.922 114.052C212.922 99.1822 212.693 84.0885 212.463 69.453C212.463 66.7083 212.463 64.1926 212.463 61.4478C212.463 58.703 212.463 56.1874 212.24 53.4426C212.24 52.2968 212.24 51.1562 212.24 50.0103V49.552L211.781 49.328C210.635 48.8697 209.719 48.4114 208.578 47.953C206.292 47.0364 204.229 45.8958 202.172 44.9791C198.74 43.151 195.766 40.6353 193.021 36.7447C192.109 35.3749 190.963 34.9166 189.365 34.9166C183.641 34.9166 177.698 34.9166 171.979 34.9166C161.911 34.9166 151.62 34.9166 141.323 35.1458C134.917 35.1458 128.286 35.3749 122.109 35.6041C116.161 35.8333 109.755 36.0624 103.807 36.0624C92.5989 36.2916 81.1614 36.2916 70.1822 36.2916C66.0676 36.2916 61.7187 36.2916 57.3749 36.2916H57.1458C55.7708 36.2916 54.1718 36.2916 53.026 37.8905C50.5103 41.0937 47.3072 43.8385 43.8749 45.8958C40.4426 47.953 36.5572 49.0989 32.4374 49.7812C32.2083 49.7812 31.9791 50.0103 31.7499 50.0103C31.526 50.0103 31.2968 50.2395 31.0676 50.2395L30.6093 50.4687V51.3853C29.9218 57.5572 29.2343 63.9635 29.6926 70.1405C30.6093 85.6926 30.3801 101.469 30.151 115.422C30.151 124.573 30.151 133.948 30.151 142.865C30.151 146.984 30.151 151.328 30.3801 155.677C30.3801 161.391 30.3801 167.338 30.3801 173.057C30.3801 173.286 30.3801 173.286 30.3801 173.516C30.3801 173.745 30.3801 174.198 30.3801 174.427C29.6926 175.344 29.2343 175.802 29.0051 175.802C28.552 175.802 27.8645 175.344 27.6353 174.885C27.4062 174.427 27.4062 173.745 27.4062 173.057C27.4062 172.828 27.4062 172.599 27.4062 172.37C26.7187 148.583 26.4895 123.656 26.7187 98.7291C26.7187 92.3228 26.4895 85.6926 26.2603 79.5155C26.2603 76.9999 26.0312 74.4843 26.0312 71.9687C25.8072 64.651 26.2603 57.3333 27.177 49.7812C27.4062 48.1822 27.6353 47.4947 27.8645 47.0364C28.3228 46.5833 29.0051 46.5833 30.6093 46.3541C38.8437 45.2083 45.9374 41.3228 51.427 34.4583C52.5676 33.0885 53.9426 32.8593 55.7708 32.8593C55.9999 32.8593 56.2291 32.8593 56.2291 32.8593C57.3749 32.8593 58.5155 32.8593 59.8905 33.0885C61.7187 33.0885 63.5468 33.3176 65.151 33.3176H65.3801C66.7499 33.3176 68.1249 33.3176 69.4947 33.3176C79.5624 33.3176 90.0833 33.3176 100.151 33.0885C105.87 33.0885 111.818 32.8593 117.536 32.6301C123.937 32.401 130.573 32.1718 137.208 32.1718C151.62 31.9426 166.031 31.9426 180.213 31.9426H180.443C182.5 31.9426 184.557 32.1718 186.615 32.1718C187.99 32.1718 189.588 32.401 190.963 32.401C192.333 32.401 193.25 33.0885 194.396 34.2291C199.198 40.177 205.604 44.2968 213.151 45.8958C214.068 46.1249 214.755 46.3541 214.984 46.5833C215.208 46.8124 215.208 47.4947 215.208 48.8697C215.208 53.901 215.208 59.1614 215.208 63.9635C215.208 74.026 215.208 84.3176 215.437 94.3801C215.437 103.073 215.896 112.219 216.125 124.344C216.583 137.38 216.125 149.958 215.437 161.849C215.208 164.365 215.208 166.88 215.208 169.396C215.208 171.229 214.984 173.286 214.984 175.344V175.573C214.984 176.484 214.984 177.401 214.526 178.088C214.755 178.088 214.068 178.547 213.609 178.547Z" fill="#C69C6D"/>
<path d="M28.5516 194.557C24.8902 194.557 21.2287 192.724 18.7131 189.297C16.4266 186.094 16.4266 179.917 18.9423 176.943C19.1714 176.714 19.4006 176.714 19.6298 176.484V176.714C19.8589 177.401 19.8589 178.089 20.0881 178.776C20.5412 181.063 21.4579 182.891 23.286 184.49C24.8902 185.865 26.7183 186.781 28.5516 186.781C29.4631 186.781 30.6089 186.552 31.7496 186.094C35.6402 184.49 37.9266 182.203 39.3016 179.005C39.5308 178.776 39.76 178.318 39.9891 178.089C39.9891 178.089 39.9891 178.089 40.2183 178.089C40.6714 178.547 40.9006 178.776 41.1298 179.229C42.2756 183.12 39.9891 189.521 36.5569 191.813C34.0412 193.641 31.2964 194.557 28.5516 194.557Z" fill="#C69C6D"/>
<path d="M212.01 194.557C208.349 194.557 204.916 192.724 202.401 189.521C199.885 186.323 199.656 180.146 202.401 176.943C202.63 176.714 202.859 176.484 203.088 176.484H203.318C203.318 176.484 203.318 176.484 203.318 176.714C203.318 177.172 203.547 177.859 203.771 178.318C204 178.776 204 179.229 204.229 179.458C204.687 180.833 205.146 182.203 206.062 183.349C207.89 185.406 209.719 186.552 212.01 186.552C213.151 186.552 214.068 186.323 215.437 185.865C219.328 184.26 221.614 182.203 222.76 179.005C222.76 178.776 222.76 178.776 222.989 178.547C222.989 178.318 223.219 177.63 223.448 177.63C223.448 177.63 223.448 177.63 223.677 177.63C224.13 177.859 224.818 178.776 224.818 179.229C225.276 182.891 224.818 187.922 220.474 191.583C217.729 193.641 214.755 194.557 212.01 194.557Z" fill="#C69C6D"/>
<path d="M120.281 163.677C125.541 161.62 131.26 161.162 136.75 162.078C135.604 161.391 134.234 160.708 132.859 160.021C124.625 156.13 115.015 155.677 106.552 159.104C74.7548 171.453 86.8798 221.083 120.281 218.797C120.51 218.797 120.734 218.797 120.963 218.797C99.0048 209.651 94.4319 173.516 120.281 163.677Z" fill="#C69C6D"/>
<path d="M155.505 194.781C157.109 187.234 156.422 179.229 153.448 172.141C150.474 165.51 145.443 160.021 139.266 156.359C132.859 152.703 125.542 150.87 118.219 150.87C110.443 150.87 102.667 153.385 96.4896 157.964C90.5416 162.307 86.1979 168.708 84.1354 175.802C82.0781 183.349 82.3073 191.583 84.8229 199.13C87.1093 206.219 91.4583 212.849 97.4062 217.427C103.354 222 110.672 224.516 118.219 224.516C120.281 224.516 122.109 224.516 123.937 224.057C124.167 224.057 124.396 224.057 124.396 224.057C124.854 224.057 125.542 223.828 126 223.828C133.318 222.229 139.953 218.568 145.214 213.307C150.245 208.276 153.906 201.875 155.505 194.781ZM124.167 222C116.62 223.141 108.615 222 101.979 218.109C95.5729 214.224 90.5416 208.047 87.5677 201.188C84.3646 193.87 83.6771 185.635 85.2812 177.859C86.8802 170.542 91 164.135 96.9479 159.563C103.125 154.99 110.901 152.703 118.677 152.703C126 152.703 133.547 154.76 139.724 159.104C145.901 163.224 150.245 169.396 152.531 176.26C154.823 183.578 154.594 191.583 152.078 198.901C149.557 205.76 144.984 211.708 139.036 215.823C136.062 218.109 132.63 219.714 128.974 220.854C128.057 221.083 127.141 221.542 126 221.771C125.542 221.771 125.083 222 124.625 222C124.625 222 124.396 222 124.167 222Z" fill="#C69C6D"/>
<path d="M51.4268 197.526C56.6872 196.844 61.7184 195.927 66.9788 195.24C69.9528 194.781 72.6976 194.328 75.6716 193.87C76.3591 193.87 77.0466 193.641 77.958 193.641C78.4163 193.641 79.1038 193.641 79.5622 193.182C80.0205 192.953 80.0205 192.495 79.7913 192.037C79.5622 191.583 79.333 191.583 78.8747 191.354H78.6455C78.6455 191.354 78.6455 191.354 78.4163 191.354C73.1559 192.037 68.1247 192.953 62.8643 193.641C57.5986 194.328 52.5674 195.24 47.307 195.927C46.6195 195.927 46.1611 196.156 45.4788 196.156C45.0205 196.156 44.333 196.156 43.6455 196.385C42.9632 196.615 42.9632 197.755 43.6455 198.214C44.1038 198.443 44.7913 198.214 45.2497 198.214C45.9372 198.214 46.6195 197.984 47.307 197.984C48.9111 197.984 50.2809 197.755 51.4268 197.526Z" fill="#C69C6D"/>
<path d="M182.958 178.088C183.64 178.088 184.557 178.088 184.786 177.172C185.015 176.484 184.557 176.031 183.869 175.802H183.64C183.64 175.802 183.64 175.802 183.416 175.802C175.864 176.943 168.088 178.088 160.541 179.229C159.854 179.229 158.937 179.229 158.708 179.917C158.479 180.375 158.708 181.062 159.396 181.292C159.854 181.521 160.083 181.292 160.541 181.292C160.994 181.292 161.453 181.062 161.911 181.062C162.828 180.833 163.739 180.833 164.885 180.604C168.776 180.146 172.661 179.458 176.323 179.005C178.838 178.776 180.896 178.547 182.958 178.088Z" fill="#C69C6D"/>
<path d="M194.396 174.427H194.167C194.167 174.427 194.167 174.427 193.937 174.427C192.333 174.656 190.734 174.885 189.364 175.115C188.677 175.115 187.76 175.344 187.073 175.573C186.614 175.573 186.161 176.031 186.391 176.713C186.391 177.172 186.844 177.63 187.302 177.63C187.76 177.63 187.989 177.63 188.448 177.401C188.906 177.401 189.364 177.172 189.588 177.172C191.193 176.943 192.792 176.713 194.396 176.484C195.083 176.484 195.536 176.031 195.536 175.344C195.307 174.885 194.854 174.656 194.396 174.427Z" fill="#C69C6D"/>
<path d="M71.0988 208.734C73.8436 207.589 76.3592 206.448 79.104 205.302C79.7915 205.073 80.4738 204.849 81.1613 204.391C81.6196 204.161 82.3071 203.932 82.7655 203.703C83.2238 203.474 83.2238 202.786 82.9946 202.333C82.7655 201.875 82.3071 201.875 82.078 201.875H81.8488C81.8488 201.875 81.8488 201.875 81.6196 201.875C76.8175 203.932 72.0102 205.99 67.2082 208.047C62.4061 210.109 57.5988 212.167 52.7967 214.224C51.6561 214.682 50.5102 214.911 49.5936 215.594C48.9061 216.052 48.9061 217.198 49.8227 217.427C50.2811 217.427 50.7394 217.198 51.1977 216.969C51.88 216.74 52.5675 216.51 53.0259 216.052C54.1717 215.594 55.3123 215.141 56.4582 214.453C61.4894 212.849 66.2915 210.792 71.0988 208.734Z" fill="#C69C6D"/>
<path d="M170.145 163.677C169.916 163.677 169.916 163.677 169.916 163.677C167.63 164.594 165.343 165.74 162.828 166.651C161.682 167.109 160.541 167.568 159.395 168.255C158.937 168.484 158.25 168.708 157.797 168.938C157.338 169.167 156.651 169.167 156.422 169.625C155.963 170.313 156.422 171.229 157.338 171.229C157.797 171.229 158.479 170.771 158.937 170.542C159.625 170.313 160.312 170.083 160.765 169.625C163.057 168.708 165.343 167.568 167.63 166.651C168.317 166.422 169.005 165.969 169.687 165.74C170.145 165.511 171.062 165.281 171.291 164.823C171.52 164.594 171.52 163.906 171.291 163.677C170.833 163.677 170.604 163.453 170.145 163.677Z" fill="#C69C6D"/>
<path d="M180.895 158.875C179.526 159.333 178.38 160.021 177.01 160.479C176.323 160.708 175.635 160.937 175.177 161.391C174.724 161.62 174.036 161.849 173.349 162.078C172.661 162.536 173.119 163.906 174.036 163.906C174.494 163.906 175.177 163.453 175.864 163.224C176.552 162.995 177.239 162.766 177.698 162.307C180.213 161.161 182.729 160.021 185.474 158.875C186.161 158.646 187.073 158.193 187.76 157.964C187.989 157.734 188.448 157.734 188.677 157.505C188.906 157.276 189.359 157.276 189.588 157.047C190.047 156.818 190.047 156.359 189.817 155.901C189.588 155.448 189.135 155.219 188.677 155.448H188.448C188.448 155.448 188.448 155.448 188.218 155.448C185.932 156.818 183.416 157.734 180.895 158.875Z" fill="#C69C6D"/>
<path d="M153.906 158.417C153.447 158.875 152.76 159.333 152.302 159.792C151.848 160.25 151.161 160.479 150.932 160.932C150.703 161.391 150.703 161.849 151.161 162.078C151.39 162.307 151.848 162.537 152.302 162.307H152.531C156.651 159.104 160.765 155.901 164.885 152.703C169.005 149.5 173.119 146.297 177.239 143.094C178.151 142.412 179.067 141.724 179.984 140.807C180.671 140.125 180.213 138.979 179.296 138.979C178.838 138.979 178.38 139.438 177.921 139.667C177.468 140.125 176.781 140.578 176.322 140.807C175.406 141.495 174.265 142.412 173.348 143.094C169.234 146.297 165.114 149.5 160.994 152.703C158.479 154.76 156.192 156.589 153.906 158.417Z" fill="#C69C6D"/>
<path d="M86.6508 210.792C86.1924 211.021 85.9685 211.25 85.7393 211.479C85.281 211.708 85.0518 211.938 84.5935 212.396C83.2237 213.536 81.8487 214.453 80.4737 215.594C80.0206 216.052 79.1039 216.51 79.3331 217.198C79.5622 217.88 80.0206 217.88 80.7028 217.656H80.932C82.307 216.51 83.6768 215.594 84.8226 214.453C85.5101 213.995 86.1976 213.307 86.8799 212.849C87.3383 212.396 88.0258 211.938 87.5674 211.25C87.7966 211.021 87.3383 210.563 86.6508 210.792Z" fill="#C69C6D"/>
<path d="M60.3487 233.891C65.8383 229.776 71.0987 225.432 76.5883 221.313C77.0466 220.854 77.7289 220.625 77.5049 219.943C77.5049 219.484 76.8174 219.026 76.3591 219.255C76.1299 219.255 75.6716 219.484 75.4424 219.714C74.9841 219.943 74.7549 220.172 74.3018 220.625C73.6143 221.083 72.9268 221.771 72.2393 222.229C69.4945 224.287 66.7497 226.573 64.0049 228.63C62.406 229.776 61.031 230.917 59.432 232.063C58.9737 232.521 58.057 232.979 58.2862 233.891C58.5153 234.349 58.9737 234.578 59.6612 234.349C60.1195 234.12 60.1195 234.12 60.3487 233.891Z" fill="#C69C6D"/>
<path d="M93.5153 223.141C93.9736 222.687 94.4319 222 94.6611 221.542C95.1142 221.083 95.5725 220.625 95.8017 219.943C96.0309 219.484 95.8017 219.026 95.3434 218.797C94.885 218.568 94.4319 218.568 94.2028 218.797C94.2028 218.797 93.9736 218.797 93.9736 219.026C93.9736 219.026 93.9736 219.026 93.9736 219.255C87.7965 227.49 81.8486 235.953 75.4423 244.182C74.7548 245.099 73.8434 246.016 73.1559 247.156C72.6975 247.844 73.1559 248.984 74.0725 248.76C74.5309 248.531 74.984 248.073 75.2132 247.615C75.6715 247.156 76.1298 246.469 76.359 246.016C77.0465 244.87 77.958 243.953 78.6455 242.813C81.6194 238.693 84.8225 234.578 87.7965 230.234C90.083 227.719 91.9163 225.432 93.5153 223.141Z" fill="#C69C6D"/>
<path d="M145.213 150.188C144.526 151.099 143.609 152.016 142.927 153.156C142.469 153.844 142.927 154.99 143.838 154.76C144.297 154.531 144.755 154.073 144.984 153.615C145.443 153.156 145.901 152.474 146.13 152.016C146.812 150.87 147.729 149.958 148.417 148.813C151.391 144.698 154.594 140.578 157.568 136.234C159.396 133.948 160.995 131.661 162.828 129.146C163.286 128.688 163.739 128 163.969 127.542C164.427 127.089 164.885 126.63 165.114 125.943C165.344 125.484 165.114 125.026 164.656 124.797C164.198 124.568 163.739 124.568 163.516 124.797C163.516 124.797 163.286 124.797 163.286 125.026C163.286 125.026 163.286 125.026 163.286 125.255C157.568 133.49 151.391 141.953 145.213 150.188Z" fill="#C69C6D"/>
<path d="M104.724 226.344C104.953 225.885 105.182 225.203 105.411 224.516C105.411 224.057 105.182 223.599 104.724 223.599C104.265 223.37 103.807 223.599 103.578 224.057C103.578 224.057 103.578 224.286 103.354 224.286C103.354 224.286 103.354 224.286 103.354 224.516C99.4631 234.12 95.8017 243.953 91.9111 253.562C91.4579 254.703 90.9996 255.62 90.5413 256.766C90.3121 257.677 91.2288 258.594 91.9111 257.906C92.3694 257.677 92.3694 256.99 92.5986 256.536C92.8277 255.849 93.0569 255.391 93.2861 254.703C93.7444 253.562 94.2027 252.187 94.6611 251.047C96.4892 246.245 98.5465 241.437 100.38 236.635C101.52 233.891 102.437 231.146 103.578 228.401C104.265 227.719 104.494 227.031 104.724 226.344Z" fill="#C69C6D"/>
<path d="M71.5568 127.771C71.5568 128 71.5568 128 71.5568 127.771C78.187 136.005 84.5932 144.01 90.9995 152.245C91.687 153.156 92.3693 154.073 93.2859 154.99C93.9734 155.677 95.1141 155.219 95.1141 154.302C95.1141 153.844 94.6609 153.385 94.2026 152.932C93.7443 152.474 93.2859 151.786 93.0568 151.328C92.1401 150.417 91.4578 149.271 90.5412 148.354C87.338 144.24 84.1349 140.349 80.9318 136.234C79.1037 133.948 77.2755 131.661 75.4422 129.375C74.9839 128.917 74.5307 128.229 74.0724 127.771C73.6141 127.312 73.3849 126.63 72.9266 126.401C72.4682 126.172 72.0099 126.172 71.7859 126.63C71.3276 126.859 71.3276 127.312 71.5568 127.771Z" fill="#C69C6D"/>
<path d="M179.984 230.464C179.526 230.005 178.838 229.547 178.38 229.318C177.239 228.63 176.323 227.719 175.177 227.031C171.062 224.057 166.942 220.854 162.599 217.885C160.312 216.052 158.021 214.453 155.505 212.625C155.047 212.167 154.364 211.708 153.906 211.479C153.448 211.021 152.989 210.563 152.302 210.333C151.849 210.109 151.39 210.333 151.161 210.792C150.932 211.25 150.932 211.708 151.161 211.938C151.161 211.938 151.161 212.167 151.39 212.167C151.39 212.167 151.39 212.167 151.619 212.167C159.854 218.339 168.317 224.287 176.552 230.693C177.468 231.375 178.38 232.292 179.526 232.979C180.213 233.438 181.354 232.979 181.125 232.063C181.125 230.917 180.442 230.693 179.984 230.464Z" fill="#C69C6D"/>
<path d="M58.057 142.182C66.5205 148.354 74.7549 154.531 82.9945 160.708C83.9059 161.391 84.8226 162.307 85.9684 162.995C86.6507 163.453 87.7965 162.995 87.5674 162.078C87.3382 161.62 86.8799 161.161 86.4216 160.932C85.9684 160.479 85.2809 160.021 84.8226 159.792C83.6768 159.104 82.7653 158.193 81.6195 157.505C77.5049 154.531 73.3851 151.328 69.0361 148.354C66.7497 146.526 64.4632 144.927 61.9476 143.094C61.4893 142.641 60.8018 142.182 60.3486 141.953C59.8903 141.495 59.432 141.036 58.7445 140.807C58.2861 140.578 57.8278 140.807 57.5986 141.266C57.5986 141.266 57.5986 141.724 58.057 142.182C57.8278 142.182 57.8278 142.182 58.057 142.182Z" fill="#C69C6D"/>
<path d="M189.364 213.078C188.677 212.849 188.218 212.625 187.531 212.396C186.39 211.938 185.015 211.479 183.869 211.021C179.067 209.193 174.265 207.135 169.458 205.302C166.713 204.162 163.968 203.245 161.224 202.104C160.541 201.875 159.854 201.646 159.166 201.417C158.708 201.188 158.02 200.958 157.338 200.729C156.88 200.729 156.421 200.958 156.421 201.417C156.192 201.875 156.421 202.333 156.88 202.557C156.88 202.557 157.109 202.557 157.109 202.787C157.109 202.787 157.109 202.787 157.338 202.787C166.942 206.677 176.781 210.333 186.39 214.224C187.531 214.682 188.447 215.141 189.588 215.594C190.505 215.823 191.421 214.912 190.734 214.224C190.505 213.537 189.817 213.307 189.364 213.078Z" fill="#C69C6D"/>
<path d="M48.6823 159.563C58.5156 163.453 68.125 167.109 77.7292 171C78.875 171.453 79.7917 171.912 80.9323 172.37C81.849 172.599 82.7656 171.682 82.0781 171C81.849 170.542 81.1615 170.542 80.7031 170.313C80.0208 170.083 79.5625 169.854 78.875 169.625C77.7292 169.167 76.3594 168.708 75.2135 168.255C70.4115 166.422 65.6094 164.365 60.8021 162.537C58.0573 161.391 55.3125 160.479 52.5677 159.333C51.8802 159.104 51.1979 158.875 50.5104 158.646C50.0521 158.417 49.3646 158.193 48.6823 157.964C48.224 157.964 47.7656 158.193 47.7656 158.646C47.9948 158.875 47.9948 159.333 48.6823 159.563C48.4531 159.563 48.4531 159.563 48.6823 159.563Z" fill="#C69C6D"/>
<path d="M194.166 194.099C193.708 194.099 193.25 193.87 192.562 193.87C191.422 193.641 190.505 193.641 189.364 193.411C185.244 192.953 180.896 192.495 176.781 192.036C174.494 191.813 172.203 191.583 169.916 191.125C169.234 191.125 168.776 190.896 168.088 190.896C167.63 190.896 167.401 190.896 167.172 191.125C166.713 191.583 166.942 192.495 167.63 192.724H167.859C167.859 192.724 167.859 192.724 168.088 192.724C176.323 193.641 184.786 194.557 193.021 195.698C193.479 195.698 193.937 195.927 194.396 195.927C194.854 195.927 195.083 195.927 195.536 195.698C195.994 195.24 195.994 194.557 195.536 194.099C194.854 194.328 194.396 194.328 194.166 194.099Z" fill="#C69C6D"/>
<path d="M159.166 191.354C159.166 191.813 159.395 192.037 159.854 192.266H160.083C160.083 192.266 160.083 192.266 160.312 192.266C160.994 192.266 161.682 192.495 162.369 192.495C162.827 192.495 163.515 192.724 164.197 192.495C165.114 192.037 164.885 190.896 163.968 190.667C163.286 190.438 162.598 190.438 161.911 190.438C161.452 190.438 160.541 190.208 160.083 190.438C159.395 190.438 159.166 190.896 159.166 191.354Z" fill="#C69C6D"/>
<path d="M43.8745 178.776C44.1037 178.776 44.1037 178.776 44.3328 178.776C49.5933 179.458 54.6297 179.917 59.8901 180.604C65.1505 181.292 70.1818 181.745 75.4422 182.432C76.588 182.662 77.7287 182.891 78.8745 182.891C79.7912 182.891 80.2495 181.745 79.562 181.063C79.1037 180.833 78.6453 180.833 78.187 180.833C77.5047 180.833 76.8172 180.604 76.1297 180.604C74.9839 180.375 73.6141 180.375 72.4683 180.146C67.2078 179.458 61.9474 179.005 56.9162 178.318C53.9422 178.089 51.1974 177.63 48.2235 177.401C47.536 177.401 46.8485 177.172 45.937 177.172C45.4787 177.172 44.7912 176.943 44.3328 177.172C43.8745 177.172 43.6453 177.63 43.6453 178.318C43.187 178.318 43.4162 178.776 43.8745 178.776Z" fill="#C69C6D"/>
<path d="M126.229 226.573C126 226.115 125.541 226.115 125.083 226.344C124.625 226.573 124.625 226.802 124.396 227.26V227.49C124.396 227.49 124.396 227.49 124.396 227.719C125.083 232.979 126 238.01 126.682 243.271C127.369 248.531 128.286 253.563 128.974 258.823C128.974 259.505 129.198 259.964 129.198 260.651C129.198 261.109 129.198 261.797 129.427 262.479C129.656 263.167 130.802 263.167 131.26 262.479C131.489 262.021 131.26 261.339 131.26 260.88C131.26 260.193 131.031 259.505 131.031 258.823C130.802 257.448 130.573 256.307 130.573 254.932C129.885 249.672 128.974 244.641 128.286 239.38C127.828 236.406 127.369 233.661 126.911 230.693C126.911 230.005 126.682 229.318 126.682 228.401C126.453 227.719 126.453 226.802 126.229 226.573Z" fill="#C69C6D"/>
<path d="M112.958 146.984C113.417 147.214 114.104 146.984 114.333 146.297C114.563 145.839 114.333 145.609 114.333 145.156C114.333 144.698 114.104 144.24 114.104 143.781C113.875 142.865 113.875 141.953 113.646 140.807C113.188 136.922 112.5 133.031 112.042 129.375C111.818 127.313 111.359 125.026 111.13 122.969C111.13 122.281 111.13 121.37 110.214 121.141C109.526 120.912 109.073 121.37 108.844 122.057V122.281C108.844 122.281 108.844 122.281 108.844 122.51C109.984 130.057 111.13 137.833 112.271 145.385C112.271 145.839 112.271 146.755 112.958 146.984Z" fill="#C69C6D"/>
<path d="M108.385 118.854C108.385 119.313 108.843 119.766 109.526 119.536C109.984 119.536 110.442 119.083 110.442 118.625C110.442 118.167 110.442 117.938 110.213 117.479C110.213 117.021 109.984 116.568 109.984 116.339C109.755 114.734 109.526 113.135 109.297 111.536C109.297 110.849 108.843 110.391 108.156 110.391C107.698 110.391 107.239 110.849 107.239 111.307V111.536C107.239 111.536 107.239 111.536 107.239 111.76C107.468 113.365 107.698 114.964 107.927 116.339C108.156 117.25 108.156 118.167 108.385 118.854Z" fill="#C69C6D"/>
<path d="M149.328 252.875C148.875 251.729 148.416 250.589 147.729 249.443C145.672 244.641 143.609 239.839 141.552 235.036C140.411 232.292 139.265 229.776 138.119 227.031C137.89 226.344 137.666 225.661 137.208 224.974C136.979 224.516 136.75 223.828 136.521 223.37C136.291 222.917 135.604 222.917 135.146 223.141C134.692 223.37 134.692 223.828 134.692 224.057V224.286C134.692 224.286 134.692 224.286 134.692 224.516C136.75 229.318 138.807 234.12 140.864 238.922C142.927 243.729 144.984 248.531 147.041 253.333C147.5 254.474 147.729 255.62 148.416 256.536C148.875 257.219 150.015 257.219 150.244 256.307C150.244 255.849 150.015 255.391 149.786 254.932C149.786 254.245 149.557 253.563 149.328 252.875Z" fill="#C69C6D"/>
<path d="M96.4895 135.776C96.4895 136.005 96.4895 136.005 96.4895 135.776C96.4895 136.005 96.4895 136.005 96.4895 136.005C97.4062 138.292 98.5468 140.578 99.4635 143.094C99.9218 144.24 100.38 145.38 101.062 146.526C101.292 146.984 101.521 147.672 101.75 148.125C101.979 148.583 101.979 149.271 102.437 149.5C103.125 149.958 104.036 149.5 104.036 148.583C104.036 148.125 103.578 147.443 103.354 146.984C103.125 146.297 102.896 145.609 102.437 145.156C101.521 142.865 100.38 140.578 99.4635 138.292C99.2343 137.609 98.776 136.922 98.5468 136.234C98.3177 135.776 98.0885 134.865 97.6354 134.635C97.4062 134.406 96.7187 134.406 96.4895 134.635C96.4895 135.089 96.2604 135.547 96.4895 135.776Z" fill="#C69C6D"/>
<path d="M88.4837 117.479C89.6243 120.224 90.7701 122.74 91.916 125.255C92.3691 126.63 93.0566 127.771 93.5149 129.146C93.7441 129.828 93.9733 130.516 94.4316 130.974C94.6608 131.432 94.8847 132.12 95.1139 132.802C95.5722 133.49 96.9472 133.031 96.9472 132.12C96.9472 131.661 96.4889 130.974 96.2597 130.286C96.0306 129.604 95.8014 128.917 95.3431 128.458C94.2024 125.943 93.0566 123.427 91.916 120.682C91.6868 119.995 91.2285 119.083 90.9993 118.396C90.7701 118.167 90.7701 117.708 90.541 117.479C90.3118 117.25 90.3118 116.797 90.0826 116.568C89.8535 116.109 89.3951 116.109 88.942 116.339C88.4837 116.568 88.2545 117.021 88.4837 117.479Z" fill="#C69C6D"/>
<path d="M133.776 146.755C133.547 147.214 133.317 147.901 133.317 148.583C133.317 149.5 134.463 149.958 135.146 149.271L135.375 149.042C135.375 149.042 135.375 149.042 135.375 148.813C138.578 138.979 142.01 129.146 145.213 119.313C145.672 118.167 146.13 117.021 146.359 115.88C146.583 114.964 145.672 114.052 144.984 114.734C144.526 114.964 144.526 115.651 144.297 116.109C144.067 116.797 143.838 117.479 143.609 117.938C143.156 119.083 142.698 120.453 142.468 121.599C140.864 126.401 139.265 131.432 137.437 136.234C136.521 138.979 135.604 141.724 134.692 144.469C134.234 145.38 134.005 146.068 133.776 146.755Z" fill="#C69C6D"/>
<path d="M150.703 224.974C150.473 224.974 150.473 224.745 150.703 224.974C149.557 223.599 148.645 222.229 147.499 220.854C147.041 220.172 146.359 219.484 145.9 218.797C145.442 218.339 144.984 217.656 144.296 218.109C143.838 218.339 143.609 219.026 143.838 219.484C144.067 219.943 144.296 220.172 144.525 220.401C144.755 220.854 144.984 221.083 145.442 221.542C146.583 222.917 147.499 224.287 148.645 225.662C149.104 226.115 149.557 227.031 150.244 226.802C150.932 226.573 150.932 226.115 150.703 225.432C150.703 224.974 150.703 224.974 150.703 224.974Z" fill="#C69C6D"/>
<path d="M166.713 245.786C166.713 245.557 166.713 245.557 166.713 245.786C162.37 240.297 158.25 234.807 154.135 229.547C153.677 229.089 153.448 228.401 152.76 228.63C152.302 228.63 151.849 229.318 152.078 229.776C152.078 230.005 152.302 230.464 152.531 230.693C152.76 231.146 152.989 231.375 153.448 231.833C153.906 232.521 154.594 233.208 155.047 233.891C157.109 236.635 159.396 239.38 161.453 242.125C162.599 243.729 163.739 245.099 164.885 246.698C165.344 247.156 165.802 248.073 166.713 247.844C167.172 247.615 167.401 247.156 167.172 246.469C166.943 245.786 166.943 245.786 166.713 245.786Z" fill="#C69C6D"/>
<path d="M126 138.521V138.292C126 138.292 126 138.292 126 138.063C126.911 129.828 127.828 121.37 128.974 113.135C128.974 112.677 129.198 112.219 129.198 111.76C129.198 111.307 129.198 111.078 128.974 110.62C128.516 110.162 127.828 110.162 127.37 110.62C127.141 110.849 127.141 111.307 127.141 111.76C127.141 112.219 126.911 112.677 126.911 113.365C126.682 114.505 126.682 115.422 126.453 116.568C126 120.682 125.542 125.026 125.083 129.146C124.854 131.432 124.625 133.719 124.167 136.005C124.167 136.693 123.938 137.151 123.938 137.833C123.938 138.292 123.938 138.521 124.167 138.75C124.854 139.438 125.542 139.208 126 138.521Z" fill="#C69C6D"/>
<path d="M124.167 146.984C124.625 146.984 124.854 146.755 125.083 146.297V146.068C125.083 146.068 125.083 146.068 125.083 145.839C125.083 145.156 125.312 144.469 125.312 143.781C125.312 143.323 125.542 142.641 125.312 141.953C124.854 141.037 123.708 141.266 123.479 142.182C123.255 142.865 123.255 143.552 123.255 144.24C123.255 144.698 123.026 145.609 123.255 146.068C123.255 146.755 123.708 146.984 124.167 146.984Z" fill="#C69C6D"/>
<path d="M113.874 226.573C113.645 227.031 113.645 227.49 113.645 227.948C113.645 228.63 113.416 229.318 113.416 230.005C113.187 231.146 113.187 232.521 112.958 233.662C112.27 238.922 111.817 244.182 111.13 249.214C110.9 252.188 110.442 254.932 110.213 257.906C110.213 258.594 109.984 259.281 109.984 260.193C109.984 260.651 109.755 261.339 109.984 261.797C109.984 262.25 110.442 262.479 111.13 262.479C111.588 262.479 111.817 262.25 112.041 261.797V261.568C112.041 261.568 112.041 261.568 112.041 261.339C112.728 256.078 113.187 251.047 113.874 245.787C114.562 240.526 115.015 235.495 115.702 230.234C115.932 229.089 116.161 227.948 116.161 226.802C115.702 226.344 114.562 225.885 113.874 226.573Z" fill="#C69C6D"/>
<path d="M171.979 186.552C172.432 186.552 172.661 186.552 172.89 186.094C173.119 185.406 172.661 184.719 171.979 184.719C169.916 184.948 167.63 184.948 165.572 185.177C164.427 185.177 163.515 185.406 162.369 185.406C161.682 185.406 160.541 185.177 160.312 186.094C160.083 186.776 160.541 187.464 160.994 187.464C161.453 187.464 161.911 187.464 162.14 187.464C162.828 187.464 163.286 187.464 163.968 187.464C166.031 187.234 168.088 187.234 170.374 187.005C170.833 186.552 171.291 186.552 171.979 186.552Z" fill="#C69C6D"/>
<path d="M77.9581 186.094C75.6717 186.323 73.6144 186.323 71.5571 186.552C70.4113 186.552 69.4946 186.781 68.354 186.781C67.6665 186.781 66.5206 186.552 66.2915 187.464C66.0675 188.151 66.5206 188.839 66.979 188.839C67.4373 188.839 67.8956 188.839 68.1248 188.839C68.8123 188.839 69.2654 188.839 69.9529 188.839C72.0102 188.609 74.0727 188.609 76.3592 188.38C76.8175 188.38 77.505 188.38 77.9581 188.38C78.4165 188.38 78.6456 188.38 78.8748 187.922C79.3331 187.005 78.8748 186.323 77.9581 186.094Z" fill="#C69C6D"/>
<path d="M158.479 175.344C158.479 175.802 158.937 176.26 159.395 176.26C159.624 176.26 160.083 176.031 160.312 176.031C160.765 175.802 160.994 175.802 161.452 175.573C162.14 175.344 163.057 175.115 163.739 174.885C166.942 173.745 169.916 172.828 173.119 171.682C174.952 171 176.551 170.542 178.38 169.854C179.067 169.625 179.755 169.396 179.525 168.708C179.525 168.026 178.838 167.797 178.38 167.797C172.202 169.854 166.031 171.911 159.624 173.969C159.166 174.427 158.479 174.656 158.479 175.344Z" fill="#C69C6D"/>
<path d="M79.791 196.844H79.5618C79.5618 196.844 79.5618 196.844 79.3327 196.844C73.1556 198.443 67.2077 200.042 61.0306 201.875C60.5723 202.104 60.1191 202.333 60.1191 202.786C60.1191 203.245 60.3483 203.703 60.8014 203.703C61.0306 203.703 61.4889 203.703 61.7181 203.474C62.1764 203.474 62.4056 203.245 62.8639 203.245C63.5462 203.016 64.4629 202.786 65.1504 202.557C68.1243 201.646 71.3275 200.958 74.3014 200.042C75.9004 199.589 77.7285 199.13 79.3327 198.672C79.791 198.443 80.2493 198.214 80.2493 197.526C80.4733 197.297 80.2493 196.844 79.791 196.844Z" fill="#C69C6D"/>
<path d="M163.968 158.646C163.739 158.646 163.739 158.646 163.968 158.646C162.14 159.792 160.312 160.932 158.708 162.078C157.797 162.766 156.88 163.224 155.963 163.906C155.505 164.135 155.276 164.365 154.823 164.594C154.593 164.823 154.364 165.052 154.364 165.281C154.364 165.969 155.047 166.422 155.734 166.193C156.192 165.969 156.422 165.74 156.88 165.51C157.338 165.281 157.797 164.823 158.25 164.594C160.083 163.453 161.682 162.307 163.515 161.161C163.968 160.932 164.427 160.479 164.885 160.25C165.343 160.021 165.573 159.792 165.802 159.333C165.573 158.875 164.656 158.193 163.968 158.646Z" fill="#C69C6D"/>
<path d="M83.4479 207.136C83.224 207.136 83.224 207.136 83.4479 207.136C81.6198 208.276 80.0208 209.422 78.1875 210.563C77.276 211.25 76.3594 211.708 75.4427 212.396C74.9844 212.625 74.7552 212.849 74.3021 213.078C74.0729 213.307 73.8438 213.537 73.8438 213.766C73.8438 214.453 74.5313 214.912 75.2135 214.682C75.6719 214.453 75.901 214.224 76.3594 213.995C76.8177 213.766 77.276 213.307 77.7292 213.078C79.5625 211.938 81.1615 210.792 82.9948 209.651C83.4479 209.422 83.9063 208.964 84.3646 208.734C84.8229 208.505 85.0521 208.276 85.2813 207.818C85.0521 207.136 84.1354 206.677 83.4479 207.136Z" fill="#C69C6D"/>
<path d="M157.796 149.042C158.25 148.583 158.937 147.901 159.395 147.443C159.854 146.984 160.541 146.297 160.994 145.839C161.682 144.927 160.765 143.781 159.854 144.24C159.854 144.24 159.625 144.24 159.625 144.469C157.567 146.526 155.734 148.354 153.677 150.417C152.76 151.328 151.619 152.474 150.703 153.385C150.244 153.844 149.786 154.302 149.328 154.99C148.875 155.448 148.416 155.901 147.958 156.359C147.5 157.047 147.958 158.417 149.104 157.964C149.557 157.734 150.015 157.047 150.473 156.818C150.932 156.359 151.39 155.901 152.078 155.219C153.677 153.156 155.734 151.099 157.796 149.042Z" fill="#C69C6D"/>
<path d="M81.1612 228.177C81.6196 227.948 82.0779 227.26 82.3071 227.031C82.7654 226.573 83.2237 226.115 83.4477 225.661C85.0518 223.828 86.88 222 88.4841 219.943C88.9425 219.484 89.3956 218.797 90.0831 218.339C90.5414 217.88 90.9998 217.427 91.4581 216.969C92.1404 216.052 90.7706 215.141 89.8539 215.823C88.255 217.656 86.4216 219.484 84.8227 221.542C83.906 222.458 82.9946 223.37 82.3071 224.516C81.8487 224.974 81.6196 225.432 81.1612 225.885C80.9321 226.115 80.7029 226.344 80.4737 226.573C80.2498 226.802 80.0206 227.031 79.7914 227.26C79.5623 227.948 80.4737 228.63 81.1612 228.177Z" fill="#C69C6D"/>
<path d="M145.442 141.495C145.672 141.037 145.901 140.807 145.672 140.349C145.442 139.667 144.297 139.667 143.838 140.125C142.927 141.953 142.01 143.781 141.093 145.609C140.64 146.526 140.182 147.443 139.724 148.354C139.494 148.813 139.265 149.271 139.036 149.5C138.807 149.729 138.807 150.188 139.036 150.417C139.265 151.099 140.182 151.099 140.64 150.641C140.864 150.417 141.093 149.958 141.323 149.5C141.552 149.042 141.781 148.583 142.01 148.125C142.927 146.297 143.838 144.469 144.755 142.641C144.984 142.412 145.213 141.953 145.442 141.495Z" fill="#C69C6D"/>
<path d="M94.2031 230.917C93.974 231.375 93.7448 231.833 93.5156 232.063C93.2865 232.292 93.2865 232.75 93.5156 232.979C93.7448 233.661 94.6615 233.661 95.1146 233.208C95.3438 232.979 95.5729 232.521 95.8021 232.063C96.0313 231.604 96.2604 231.146 96.4896 230.693C97.4063 228.859 98.3177 227.031 99.2344 225.203C99.4635 224.745 99.6927 224.286 99.9219 223.828C100.151 223.37 100.38 223.141 100.151 222.688C99.9219 222 98.776 222 98.3177 222.458C97.4062 224.286 96.4896 226.115 95.5729 227.948C95.1146 228.859 94.6615 230.005 94.2031 230.917Z" fill="#C69C6D"/>
<path d="M131.948 131.891C131.719 131.891 131.719 131.891 131.948 131.891C131.49 134.635 130.802 137.151 130.344 139.667C130.115 141.036 129.885 142.182 129.656 143.552C129.656 144.01 129.427 144.698 129.427 145.156C129.427 145.609 128.974 146.297 129.198 146.984C129.427 147.672 130.573 147.672 131.031 147.214C131.26 146.755 131.26 146.068 131.49 145.609C131.719 144.927 131.719 144.469 131.948 143.781C132.401 141.266 133.089 138.75 133.547 136.234C133.776 135.547 133.776 134.635 134.005 133.948C134.005 133.49 134.464 132.802 134.234 132.12C133.547 130.974 132.172 130.974 131.948 131.891Z" fill="#C69C6D"/>
<path d="M110.213 227.719C110.442 227.031 110.442 226.344 109.984 226.115C109.526 225.885 109.073 225.885 108.844 226.344C108.844 226.344 108.844 226.573 108.614 226.573C108.614 226.573 108.614 226.573 108.614 226.802C107.01 232.979 105.182 239.151 103.578 245.099C103.354 245.557 103.354 246.245 103.807 246.698C104.265 246.927 104.724 246.927 105.182 246.698C105.411 246.469 105.411 246.016 105.64 245.787C105.64 245.328 105.87 245.099 105.87 244.641C106.099 243.953 106.323 243.042 106.552 242.354C107.469 239.38 108.156 236.177 109.073 233.208C109.297 231.146 109.755 229.318 110.213 227.719Z" fill="#C69C6D"/>
<path d="M118.676 146.068C119.364 146.297 120.051 145.839 120.051 145.38C120.051 144.927 120.051 144.469 120.051 144.24C120.051 143.552 120.051 143.094 120.051 142.411C119.822 140.349 119.822 138.292 119.593 136.005C119.593 135.547 119.593 134.865 119.593 134.406C119.593 133.948 119.593 133.719 119.135 133.49C118.447 133.26 117.76 133.719 117.76 134.406C117.989 136.464 117.989 138.75 118.218 140.807C118.218 141.953 118.447 142.865 118.447 144.01C117.989 144.698 117.989 145.839 118.676 146.068Z" fill="#C69C6D"/>
<path d="M120.51 227.26C119.822 227.031 119.135 227.49 119.135 228.177C119.364 230.234 119.364 232.521 119.593 234.578C119.593 235.724 119.822 236.635 119.822 237.781C119.822 238.469 119.593 239.609 120.51 239.839C121.192 240.068 121.88 239.609 121.88 239.151C121.88 238.693 121.88 238.24 121.88 238.01C121.88 237.323 121.88 236.865 121.88 236.177C121.65 234.12 121.65 232.063 121.421 229.776C121.421 229.318 121.421 228.63 121.421 228.177C120.963 227.948 120.963 227.49 120.51 227.26Z" fill="#C69C6D"/>
<path d="M102.666 132.802C103.578 135.318 104.265 137.833 105.182 140.125C105.64 141.495 106.098 142.641 106.552 144.011C106.781 144.698 107.01 145.156 107.239 145.839C107.468 146.297 107.468 146.984 107.927 147.443C108.614 148.125 109.526 147.443 109.526 146.755C109.526 146.297 109.296 145.609 109.072 145.156C108.843 144.469 108.614 144.01 108.385 143.323C107.468 140.807 106.781 138.292 105.869 136.005C105.64 135.318 105.411 134.635 105.182 133.948C104.953 133.49 104.953 133.261 104.723 132.802C104.723 132.573 104.494 132.349 104.494 132.12C103.807 130.974 102.437 131.891 102.666 132.802Z" fill="#C69C6D"/>
<path d="M135.833 238.469C134.922 235.724 134.005 232.979 133.088 230.464C132.859 229.776 132.63 229.089 132.401 228.401C132.172 227.719 131.948 226.802 131.718 226.344C131.26 225.203 129.656 225.885 129.885 227.031C130.802 229.776 131.718 232.292 132.63 235.036C133.088 236.406 133.547 237.781 134.005 238.922C134.234 239.609 134.463 240.297 134.692 240.984C134.692 241.214 134.922 241.667 134.922 241.896C134.922 242.125 135.145 242.583 135.375 243.042C135.833 243.953 137.208 243.5 137.208 242.583C137.208 242.125 136.979 241.438 136.75 240.755C136.291 239.839 136.062 239.151 135.833 238.469Z" fill="#C69C6D"/>
<path d="M86.8801 135.547C87.1092 135.547 87.1092 135.547 86.8801 135.547C90.3124 140.807 93.7447 146.068 97.177 151.328C97.4061 151.786 97.8592 152.245 98.5467 152.245C99.0051 152.016 99.4634 151.557 99.2342 151.099C99.2342 150.87 99.0051 150.417 98.7759 150.188C98.5467 149.958 98.3176 149.5 98.0884 149.271C97.6353 148.583 97.177 147.901 96.7186 147.214C94.8853 144.698 93.2863 141.953 91.4582 139.438C90.5415 138.063 89.6249 136.464 88.4842 135.089C88.2551 134.635 87.7967 133.948 87.1092 134.177C86.8801 134.177 86.6509 134.865 86.8801 135.547C86.8801 135.318 86.8801 135.318 86.8801 135.547Z" fill="#C69C6D"/>
<path d="M147.041 230.005C146.812 229.547 146.359 229.089 146.13 228.63C144.984 226.802 143.838 225.203 142.698 223.37C142.468 222.917 142.01 222.458 141.781 222C141.552 221.542 141.323 221.313 140.864 221.083C139.953 220.854 139.495 221.771 139.953 222.458C141.093 224.287 142.239 225.885 143.385 227.719C144.067 228.63 144.526 229.547 145.213 230.464C145.442 230.917 145.672 231.146 145.901 231.604C146.13 231.833 146.359 232.063 146.583 232.063C147.271 232.063 147.729 231.375 147.5 230.693C147.5 230.693 147.271 230.464 147.041 230.005Z" fill="#C69C6D"/>
<path d="M88.2549 154.76C86.4215 153.156 84.8226 151.557 82.9945 149.958C82.5361 149.5 82.0778 149.042 81.6195 148.583C81.1611 148.125 80.7028 147.672 80.2497 147.443C79.333 146.984 78.6455 148.354 79.333 149.042C81.1611 150.641 82.9945 152.245 84.8226 153.844C85.7393 154.531 86.6507 155.448 87.3382 156.13C87.7965 156.589 88.2549 156.818 88.7132 157.276C89.1663 157.505 89.3955 158.193 89.8538 158.193C90.7705 158.417 91.458 157.505 90.9997 156.818C90.7705 156.359 90.3122 156.13 89.8538 155.677C89.1663 155.677 88.7132 155.219 88.2549 154.76Z" fill="#C69C6D"/>
<path d="M149.328 214.682C148.416 214.682 148.187 215.823 148.645 216.281C150.244 217.656 151.619 219.026 153.218 220.401C153.906 221.083 154.822 221.771 155.505 222.458C155.963 222.688 156.192 223.141 156.651 223.37C156.88 223.599 157.338 223.828 157.567 223.828C158.25 223.599 158.479 222.917 158.25 222.229C158.02 221.771 157.567 221.542 157.338 221.313C156.88 220.854 156.421 220.625 156.192 220.172C154.593 218.797 153.218 217.427 151.619 216.052C151.161 215.594 150.703 215.365 150.474 214.912C150.015 214.912 149.786 214.682 149.328 214.682Z" fill="#C69C6D"/>
<path d="M82.9942 165.052C82.5359 164.823 82.0776 164.594 81.6192 164.365C79.7911 163.453 77.9578 162.536 76.1297 161.62C75.6713 161.391 75.213 161.161 74.7547 160.932C74.3015 160.708 74.0724 160.479 73.614 160.708C72.9265 160.932 72.9265 162.078 73.3849 162.536C75.213 163.453 77.0463 164.365 78.8744 165.281C79.7911 165.74 80.7026 166.193 81.6192 166.651C82.0776 166.88 82.5359 167.109 82.7651 167.339C82.9942 167.568 83.4474 167.568 83.6765 167.339C84.364 167.109 84.364 166.193 83.9057 165.74C83.6765 165.281 83.2234 165.281 82.9942 165.052Z" fill="#C69C6D"/>
<path d="M155.505 205.99C154.822 206.219 154.822 207.365 155.276 207.818C157.109 208.734 158.937 209.651 160.765 210.563C161.682 211.021 162.598 211.479 163.515 211.938C163.968 212.167 164.427 212.396 164.656 212.625C164.885 212.849 165.343 212.849 165.572 212.625C166.26 212.396 166.26 211.479 165.802 211.021C165.572 210.792 165.114 210.563 164.656 210.333C164.197 210.109 163.739 209.88 163.286 209.651C161.453 208.734 159.624 207.818 157.796 206.906C157.338 206.677 156.88 206.448 156.421 206.219C156.192 205.99 155.963 205.761 155.505 205.99Z" fill="#C69C6D"/>
<path d="M79.7912 175.573C79.3329 175.344 78.4162 175.344 77.9579 175.115C77.0464 174.885 76.3589 174.885 75.4423 174.656C72.4683 173.969 69.4944 173.516 66.5204 172.828C64.9214 172.37 63.0933 172.141 61.4892 171.682C61.0308 171.682 60.3485 171.682 60.3485 172.37C60.1194 172.828 60.5725 173.516 61.0308 173.745C64.0048 174.427 66.9787 174.885 69.9527 175.573C71.5569 175.802 72.9267 176.26 74.5308 176.484C75.2131 176.714 75.9006 176.714 76.5881 176.943C77.2756 177.172 78.1871 177.401 78.8746 177.401C80.2496 177.401 80.7027 176.031 79.7912 175.573Z" fill="#C69C6D"/>
<path d="M159.625 197.755C162.828 198.443 165.802 199.13 168.776 199.589C170.145 199.813 171.52 200.271 173.119 200.5C173.807 200.729 174.494 200.729 175.406 200.958C176.093 201.188 176.781 201.417 177.468 201.417C178.609 201.417 179.067 200.042 178.151 199.589C177.697 199.359 176.781 199.359 176.322 199.13C175.635 198.901 174.953 198.901 174.036 198.672C171.062 197.984 168.088 197.526 165.114 196.844C163.515 196.615 161.911 196.156 160.312 195.927C159.854 195.927 159.166 195.927 159.166 196.615C158.708 197.073 158.937 197.755 159.625 197.755Z" fill="#C69C6D"/>
</svg>
